<svg xmlns="http://www.w3.org/2000/svg" xmlns:xlink="http://www.w3.org/1999/xlink" viewBox="0 0 701 661.83"><defs><style>.cls-1{fill:none;}.cls-2{clip-path:url(#clip-path);}.cls-3{fill:url(#linear-gradient);}.cls-4{fill:#fff;}.cls-5{fill:url(#linear-gradient-2);}.cls-6{fill:url(#linear-gradient-3);}.cls-7{fill:#7b0809;}.cls-8{fill:url(#linear-gradient-4);}.cls-9{fill:#a00309;}.cls-10{fill:#be1e2d;}.cls-11{fill:url(#linear-gradient-5);}.cls-12{fill:#ef4136;}.cls-13{fill:#690609;}.cls-14{opacity:0.25;}.cls-15{clip-path:url(#clip-path-2);}.cls-16{fill:#f2f2f2;}</style><clipPath id="clip-path" transform="translate(1 11.83)"><rect class="cls-1" width="700" height="500"/></clipPath><linearGradient id="linear-gradient" x1="351" y1="370.57" x2="351" y2="212.59" gradientUnits="userSpaceOnUse"><stop offset="0" stop-color="#ef4136"/><stop offset="1" stop-color="#fbb040"/></linearGradient><linearGradient id="linear-gradient-2" x1="349" y1="400.56" x2="349" y2="301.63" gradientUnits="userSpaceOnUse"><stop offset="0" stop-color="#9b1e2d"/><stop offset="1" stop-color="#ef5336"/></linearGradient><linearGradient id="linear-gradient-3" x1="349" y1="452.36" x2="349" y2="308.1" gradientUnits="userSpaceOnUse"><stop offset="0" stop-color="#ab1e2d"/><stop offset="1" stop-color="#ef4136"/></linearGradient><linearGradient id="linear-gradient-4" x1="350" y1="502.38" x2="350" y2="399.88" gradientUnits="userSpaceOnUse"><stop offset="0" stop-color="#be1e2d"/><stop offset="1" stop-color="#ef4136"/></linearGradient><linearGradient id="linear-gradient-5" x1="348.43" y1="321.33" x2="348.43" y2="444.34" gradientUnits="userSpaceOnUse"><stop offset="0" stop-color="#a00309"/><stop offset="0.26" stop-color="#970309"/><stop offset="0.68" stop-color="#7e0309"/><stop offset="1" stop-color="#680309"/></linearGradient><clipPath id="clip-path-2" transform="translate(1 11.83)"><path class="cls-1" d="M669.2,478.23c-7.69,2-32.89-6.86-32.89-6.86l-27.1-.69s-13.35.37-23.34-5-9.37-4.75-17.32-3.16-14.61-3.15-22.44-4.77a35.14,35.14,0,0,0-14.29,0l-22.71.63L449.74,444H346.22l-48.3,6.64-85.62,5.6s-22.37,9.67-27.59,14.13-15.31,2.08-19.14,6-25.86.88-30.25,3.32S103,479,103,479s-24.26-3.76-32.4-2.3-18,.2-21.63,3-49,15-49,15V500H700V484.25C687.53,481.06,673.52,477.08,669.2,478.23Z"/></clipPath></defs><g id="Capa_2" data-name="Capa 2"><g id="Background_2" data-name="Background 2"><g class="cls-2"><rect class="cls-3" x="1" width="700" height="511.83"/><circle class="cls-4" cx="351" cy="227.08" r="164.94"/><path class="cls-5" d="M-1,423.9H699V383.29L694.09,385l-13.44,4.41H644L623.62,385l-10.7-4.62s-1.09-.13-11.87-3A117.84,117.84,0,0,1,579.92,369l-16.21-6.71-18.6-8.72-14.29-8.31s2.23-.55-9.61-3.47-15.94-4.19-15.94-4.19l-13.82-6.83-27.89-8.32-8.6-4.9-24.13,4L412,325l-18.39,8.57-15.19,7.35s-3.13,1.17-12.66,5a78,78,0,0,0-14.7,7.57l-16.36,8.72-81.8,10s-2.4,1.48-12.67,2.75-26.46,2.32-26.46,2.32H190.7L172,373.89H140.61l-12.27-3.19-18.74-8.45L86.71,351.31,69.63,338.05,64.27,330,48,326.67,32.43,322.9l-11-.28-10.23.28L-1,326Z" transform="translate(1 11.83)"/><path class="cls-6" d="M699,346.29l-13.31,4.76-8.51,4.83-10.52-4.83-10.13-8.72-8.4-12.62-7.91-7.26-10.88-8.66L617,307.73l-8.78-5.84L589,292.94l-21.41,4s-4.27.18-8.83,5.12-7.64,5.65-7.64,5.65l-9,9.85-5.71,5.85L494.6,348.68s-11.82,6.75-16.33,9.16a115.62,115.62,0,0,1-10.9,4.85l-13.6,4.84h-13.3l-16.24-1.39-15.93,1.39-18.68-4.84L374,360.15l-16.14-.41L347.19,354l-13.72-8.81-15.3-7.6L305.6,326.36s-8.4-3.26-14-8.44-14.1-2.45-14.1-2.45l-12.94-5.19-13.7-4.89-9.52-4.71L231.12,297,220,292.57l-9.62-3.87L192,285.33l-11.38,0-14.09-1.12-8,1.12a67.53,67.53,0,0,1-15.25,7.58c-9.06,3.19-11.05,7.11-11.05,7.11s-9.41,7.3-17.61,13.74S104,324.18,104,324.18L86.71,340.11,66.27,355.43,51.65,369.18,39.09,381.45,26.16,394.59,9.91,411.82-1,424V579.76H699Z" transform="translate(1 11.83)"/><path class="cls-7" d="M689.32,434.36l-15.24-3.45-11.48-2.49c-7.57-1.64-12.07-2.55-12.07-2.55l-10-7.93a55.85,55.85,0,0,1-11.23-3c-5.73-2.25-7.34-1.48-12.35-1s-13.67.72-13.67.72l-15.8,1.93-6.74,1.38c-6.73,1.39-53.68,3-53.68,3l-14.89,2.78-17.61.8s-10.88,1-16.33-1.39-4.06,1-7.4-2.19S459,422.13,449.93,418s-14.09-3.13-14.09-3.13-12.64-.54-20.13-1.93-16.37.94-16.37.94-11.24-3-16.6,1.81-57.35,5.19-57.35,5.19L314,423.75l-19.65,3-19.19,1.71-12.51-1.2-12.19.59a102.59,102.59,0,0,0-24.93-5.46c-13.88-1.22,0,0-28.45,4.27s-35.75,1-40.66-2.13-10.44,1.07-15.6,0-20-3.58-20-3.58h-6.3L96.1,418S84.4,420,72.65,420.91a105.34,105.34,0,0,0-21.82,4.29l-23.68,9.16s-12.14,11.81-16,14.72C9.36,450.45,4.08,455.37-1,460.21v64.28H699V434.36Z" transform="translate(1 11.83)"/><path class="cls-8" d="M669.2,478.23c-7.69,2-32.89-6.86-32.89-6.86l-27.1-.69s-13.35.37-23.34-5-9.37-4.75-17.32-3.16-14.61-3.15-22.44-4.77a35.14,35.14,0,0,0-14.29,0l-22.71.63L449.74,444H346.22l-48.3,6.64-85.62,5.6s-22.37,9.67-27.59,14.13-15.31,2.08-19.14,6-25.86.88-30.25,3.32S103,479,103,479s-24.26-3.76-32.4-2.3-18,.2-21.63,3-49,15-49,15V500H700V484.25C687.53,481.06,673.52,477.08,669.2,478.23Z" transform="translate(1 11.83)"/><path class="cls-9" d="M350,232.36S240.68,228.82,226.86,224l7.07,13.82h10.93l5.79,12.86h25.93v6.86h3.81v14H257.24v2.73h3.21V284.6h19.94V370H279.1v4.18h1.29v50.15h-3.54V432h25.4v-7.72h-3.54V374.13H300V370h-1.29V284.6H401.29V370H400v4.18h1.29v50.15h-3.54V432h25.4v-7.72h-3.54V374.13h1.29V370h-1.29V284.6h19.94V274.31h3.21v-2.73H419.61v-14h3.81v-6.86h25.93l5.79-12.86h10.93L473.14,224C459.32,228.82,350,232.36,350,232.36Zm-7.3,39.22h-44v-14h3.48v-6.86H342.7Zm58.59,0h-44v-20.9h40.51v6.86h3.48Z" transform="translate(1 11.83)"/><path class="cls-10" d="M519.72,60a13.4,13.4,0,0,0-6.41,1.62,32.81,32.81,0,0,0-44.89-19.68,44.51,44.51,0,0,0-88.75-1.57A27.67,27.67,0,0,0,339.2,64.73a10,10,0,0,0-1.1-.07,9.14,9.14,0,0,0-9.27,9.12,1.25,1.25,0,0,0,0,.22H550.22C534.75,69,531.25,60.28,519.72,60Z" transform="translate(1 11.83)"/><path class="cls-10" d="M220.93,203a6.1,6.1,0,0,0-2.83.8,14.43,14.43,0,0,0-19.82-8.62,19.64,19.64,0,0,0-39.17-.68,12.21,12.21,0,0,0-17.87,10.76,4.09,4.09,0,0,0-4.58,3.83c0,.05,0-.07,0-.07h97.72C227.56,207,226,203.11,220.93,203Z" transform="translate(1 11.83)"/><path class="cls-10" d="M688.66,124.16a5.18,5.18,0,0,0-2.39.79,12.12,12.12,0,0,0-16.69-7.18,16.56,16.56,0,0,0-33-.55,10.15,10.15,0,0,0-4.76-1.16,10.28,10.28,0,0,0-10.29,10.23,2.83,2.83,0,0,0-.41,0c-1.9,0-3.45,1.12-3.45,3,0,0,0-.29,0-.29H700C694.25,128,692.94,124.27,688.66,124.16Z" transform="translate(1 11.83)"/><path class="cls-10" d="M420,187.67a18.39,18.39,0,0,1,8,1.86c0-.54-.05-1.08-.05-1.62a27.43,27.43,0,0,1,39.23-24.74,33.83,33.83,0,0,1,62.16,15.7,18.69,18.69,0,0,1,4.19-.48A18.47,18.47,0,0,1,552,196.86q0,.51,0,1a9.26,9.26,0,0,1,4.21-1.07c5.1,0,6.33,7.07,16.43,9.19H401.5A18.46,18.46,0,0,1,420,187.67Z" transform="translate(1 11.83)"/><path class="cls-10" d="M21.24,101.37a14.8,14.8,0,0,1,6.41,1.48c0-.43,0-.85,0-1.29A21.89,21.89,0,0,1,58.92,81.81a27,27,0,0,1,49.61,12.54,14.72,14.72,0,0,1,18.09,14.36c0,.27,0,.54,0,.81a7.34,7.34,0,0,1,3.36-.85c4.07,0,5,5.63,13.11,7.33H6.5A14.74,14.74,0,0,1,21.24,101.37Z" transform="translate(1 11.83)"/><path class="cls-11" d="M390.76,437.17c-3.34-1.39-6.13-5.56-6.13-5.56l-2.13-18.09c2.13-3.9-6.21-9.46-6.21-9.46l-3.62-11.79a9.9,9.9,0,0,0-1.77-3.35l-3.43-4.25-2.14-10.85,6.21-3.72.75-1,1.42,2a1.12,1.12,0,0,0,1.57.27l.57-.4a1.12,1.12,0,0,0,.27-1.57l-2-2.84,10.07-13.89a3.42,3.42,0,0,0-.57-4.64c-6.09-5.06-21.57-17.83-24.76-19.38-2.69-1.32-3.14-5.49-3.15-8.06a22.33,22.33,0,0,0,.68-5.44c0-7.56-.71-10.55-8.88-10.55-4.91,0-8.88,3-8.88,10.55,0,.33,0,.67,0,1l-2.29-3.26.1-.53a2.34,2.34,0,0,0-.44-1.88l-1.51-1.95a1.9,1.9,0,0,0-1.73-.72l-7.15-10.16a1.48,1.48,0,1,0-2.42,1.7l6.9,9.8-2.9,1.63L326,313.48l-6,4.92a7.89,7.89,0,0,0-2.85,5.14c-.13,1-.24,1.84-.24,1.95s-1.46,2.52-2.71,4.5a3.54,3.54,0,0,0,.85,4.71l14.57,11.11,7.34,15.3v6.12l-5.35,7a11.38,11.38,0,0,0-2.81,4.66l-.66,2.15a18.29,18.29,0,0,1-5.22,8.2l-3.5,3.17a17.53,17.53,0,0,0-5.75,12.09h0l-2.08,3.8a3.38,3.38,0,0,0,1.15,4.49l.1.06,3.43,20.31c-1.3,1.12-7.7,5.57-9.64,6.13-1.08.3-1.39,1.8-1.46,2.84a1.75,1.75,0,0,0,1.51,1.85h4.48c.38,0,.74-.33,1.19-.5l5.41-2.24a3.44,3.44,0,0,1,.76-.27l4.47-.72a1.89,1.89,0,0,0,1.58-2.12l-.73-5.62a3.66,3.66,0,0,1,0-.81l1.26-12.89-.65-5.48,3.38-.65a7.46,7.46,0,0,0,4.77-3.1l3.62-5.25a10.14,10.14,0,0,1,2.53-2.53l8.15-5.64,17.63,16.11a5,5,0,0,0,1.69,1l5.08,1.8,1,4.08,6.15,13.36a3,3,0,0,1,.26,1.54l-.17,1.8a1.56,1.56,0,0,0,1,1.62l1.37.51c3.07,3.89,10.49,1.85,10.49,1.85A1.87,1.87,0,0,0,390.76,437.17Zm-15.68-85.8-4.64,9.93-3-4.26,2.26-5.2ZM341,326.73a3.17,3.17,0,0,1-3.19,2.86l-13,.08,1-4.48a4.37,4.37,0,0,1,2.57-3.08l2.32-1a2.53,2.53,0,0,0,1.55-2.28l.05-2.3,2.2-1.16,5.84,8.29s.38.08.39.12l.25,0Zm25.07,33.49,1.19,1.69-2.1.41Z" transform="translate(1 11.83)"/><path class="cls-12" d="M354.28,318.31l-6.4,2.53a1,1,0,0,1-.72,0l-6.4-2.53a1,1,0,0,1-.62-.9v-1.86a1,1,0,0,1,1.07-1l6.22.57h.18l6.22-.57a1,1,0,0,1,1.06,1v1.86A1,1,0,0,1,354.28,318.31Z" transform="translate(1 11.83)"/><path class="cls-13" d="M353.38,315.74a.38.38,0,0,0-.51-.15,15.77,15.77,0,0,1-3.23,1,.38.38,0,0,0-.29.44.36.36,0,0,0,.36.3h.07l1-.22a1.1,1.1,0,0,0-.06.37c0,.56.32,1,.71,1s.71-.44.71-1a1.17,1.17,0,0,0-.2-.69,6.75,6.75,0,0,0,1.27-.49A.38.38,0,0,0,353.38,315.74Z" transform="translate(1 11.83)"/><path class="cls-13" d="M342.34,315.74a.36.36,0,0,1,.5-.15,15.77,15.77,0,0,0,3.23,1,.39.39,0,0,1,.3.44.37.37,0,0,1-.37.3h-.07s-.46-.09-1-.22a1.44,1.44,0,0,1,.05.37c0,.56-.32,1-.71,1s-.71-.44-.71-1a1.25,1.25,0,0,1,.2-.69,6.75,6.75,0,0,1-1.27-.49A.36.36,0,0,1,342.34,315.74Z" transform="translate(1 11.83)"/><path class="cls-13" d="M346.37,321.21a.18.18,0,0,1-.15-.08.18.18,0,0,1,0-.26c1.17-.81.92-3.45.92-3.47a.19.19,0,0,1,.17-.21.19.19,0,0,1,.2.17c0,.12.28,2.89-1.08,3.81A.17.17,0,0,1,346.37,321.21Z" transform="translate(1 11.83)"/><g class="cls-14"><g class="cls-15"><path class="cls-9" d="M350,641.64s109.32,3.54,123.14,8.36l-7.07-13.82H455.14l-5.79-12.86H423.42v-6.86h-3.81v-14h23.15v-2.73h-3.21V589.4H419.61V504.05h1.29v-4.18h-1.29V449.72h3.54V442h-25.4v7.72h3.54v50.15H400v4.18h1.29V589.4H298.71V504.05H300v-4.18h-1.29V449.72h3.54V442h-25.4v7.72h3.54v50.15H279.1v4.18h1.29V589.4H260.45v10.29h-3.21v2.73h23.15v14h-3.81v6.86H250.65l-5.79,12.86H233.93L226.86,650C240.68,645.18,350,641.64,350,641.64Zm7.3-39.22h44v14h-3.48v6.86H357.3Zm-58.59,0h44v20.9H302.19v-6.86h-3.48Z" transform="translate(1 11.83)"/></g></g></g></g><g id="Designed_by_Freepik" data-name="Designed by Freepik"><path class="cls-16" d="M280.31,472.29v-.16a4,4,0,0,1-.65.61,2.27,2.27,0,0,1-.69.36,2.55,2.55,0,0,1-.81.12,2.31,2.31,0,0,1-1.07-.25,2.51,2.51,0,0,1-.86-.7,3.15,3.15,0,0,1-.55-1.08,4.7,4.7,0,0,1-.19-1.33,3.47,3.47,0,0,1,.75-2.37,2.44,2.44,0,0,1,1.95-.85,2.61,2.61,0,0,1,1.18.24,3.43,3.43,0,0,1,.94.74v-2.39a1.19,1.19,0,0,1,.2-.76.66.66,0,0,1,.56-.25.72.72,0,0,1,.57.23,1.08,1.08,0,0,1,.2.7v7.14a1,1,0,0,1-.21.7.75.75,0,0,1-.56.23.72.72,0,0,1-.55-.24A1,1,0,0,1,280.31,472.29Zm-3.19-2.38a2.84,2.84,0,0,0,.2,1.12,1.55,1.55,0,0,0,.57.7,1.32,1.32,0,0,0,.77.24,1.4,1.4,0,0,0,.78-.23,1.44,1.44,0,0,0,.57-.68,2.78,2.78,0,0,0,.21-1.15,2.68,2.68,0,0,0-.21-1.11,1.64,1.64,0,0,0-.57-.71,1.33,1.33,0,0,0-.79-.25,1.28,1.28,0,0,0-.79.25,1.59,1.59,0,0,0-.55.73A2.83,2.83,0,0,0,277.12,469.91Z" transform="translate(1 11.83)"/><path class="cls-16" d="M287.45,470.32h-3.17a2.21,2.21,0,0,0,.23,1,1.46,1.46,0,0,0,.57.63,1.57,1.57,0,0,0,.8.21,2.2,2.2,0,0,0,.53-.06,1.76,1.76,0,0,0,.46-.22,3.25,3.25,0,0,0,.42-.31l.49-.45a.53.53,0,0,1,.36-.11.59.59,0,0,1,.4.14.5.5,0,0,1,.16.38,1,1,0,0,1-.18.52,2.06,2.06,0,0,1-.52.56,3,3,0,0,1-.87.45,3.71,3.71,0,0,1-1.21.18,3.26,3.26,0,0,1-2.43-.89,3.36,3.36,0,0,1-.86-2.42,4.08,4.08,0,0,1,.21-1.33,2.9,2.9,0,0,1,.62-1.05,2.73,2.73,0,0,1,1-.68,3.79,3.79,0,0,1,1.33-.23,3.1,3.1,0,0,1,1.63.4,2.59,2.59,0,0,1,1,1,2.71,2.71,0,0,1,.34,1.3.81.81,0,0,1-.35.79A2.19,2.19,0,0,1,287.45,470.32Zm-3.17-.92h2.94a2,2,0,0,0-.45-1.24,1.32,1.32,0,0,0-1-.41,1.28,1.28,0,0,0-1,.41A2.14,2.14,0,0,0,284.28,469.4Z" transform="translate(1 11.83)"/><path class="cls-16" d="M294.84,471.1a1.88,1.88,0,0,1-1.29,1.87,4.25,4.25,0,0,1-1.56.25,3.71,3.71,0,0,1-1.49-.27,2.16,2.16,0,0,1-.92-.67,1.31,1.31,0,0,1-.3-.8.62.62,0,0,1,.19-.46.69.69,0,0,1,.48-.19.53.53,0,0,1,.39.13,1.29,1.29,0,0,1,.27.35,1.67,1.67,0,0,0,.59.64,1.74,1.74,0,0,0,.95.22,1.35,1.35,0,0,0,.8-.22.6.6,0,0,0,.31-.5.68.68,0,0,0-.32-.62,4.27,4.27,0,0,0-1.07-.37,9.1,9.1,0,0,1-1.36-.44,2.21,2.21,0,0,1-.84-.6,1.39,1.39,0,0,1-.32-.92,1.64,1.64,0,0,1,.29-.92,2,2,0,0,1,.86-.69,3.35,3.35,0,0,1,1.37-.26,4.33,4.33,0,0,1,1.13.13,2.83,2.83,0,0,1,.84.35,1.85,1.85,0,0,1,.51.49,1,1,0,0,1,.17.52.62.62,0,0,1-.18.46.78.78,0,0,1-.53.17.64.64,0,0,1-.43-.14,2.46,2.46,0,0,1-.4-.43,1.73,1.73,0,0,0-.43-.38,1.44,1.44,0,0,0-.68-.14,1.28,1.28,0,0,0-.73.19.55.55,0,0,0-.29.46.5.5,0,0,0,.21.42,1.84,1.84,0,0,0,.58.27c.24.07.57.16,1,.26a5.76,5.76,0,0,1,1.23.44,2,2,0,0,1,.72.61A1.28,1.28,0,0,1,294.84,471.1Z" transform="translate(1 11.83)"/><path class="cls-16" d="M296.49,465.88a.88.88,0,0,1-.58-.21.75.75,0,0,1-.24-.59.76.76,0,0,1,.25-.57.82.82,0,0,1,.57-.22.87.87,0,0,1,.56.2.74.74,0,0,1,.25.59.73.73,0,0,1-.24.58A.8.8,0,0,1,296.49,465.88Zm.81,1.67v4.68a1,1,0,0,1-.24.74.79.79,0,0,1-1.16,0,1.06,1.06,0,0,1-.23-.73V467.6a1,1,0,0,1,.23-.73.75.75,0,0,1,.58-.24.77.77,0,0,1,.58.24A.92.92,0,0,1,297.3,467.55Z" transform="translate(1 11.83)"/><path class="cls-16" d="M304.39,467.82v4.7a4.72,4.72,0,0,1-.17,1.39,2.17,2.17,0,0,1-.55,1,2.2,2.2,0,0,1-1,.57,5.53,5.53,0,0,1-1.53.18,4.63,4.63,0,0,1-1.5-.23,2.52,2.52,0,0,1-1-.61,1.08,1.08,0,0,1-.36-.76.63.63,0,0,1,.2-.48.69.69,0,0,1,.49-.19.79.79,0,0,1,.62.31l.27.33a1.64,1.64,0,0,0,.31.28,1.41,1.41,0,0,0,.41.17,2.26,2.26,0,0,0,.54.05,2.18,2.18,0,0,0,1-.17,1.06,1.06,0,0,0,.49-.49,2.12,2.12,0,0,0,.16-.67c0-.24,0-.63,0-1.16a2.63,2.63,0,0,1-.87.8,2.34,2.34,0,0,1-1.16.27,2.46,2.46,0,0,1-1.43-.42,2.64,2.64,0,0,1-.93-1.16,4.24,4.24,0,0,1-.33-1.73,4.14,4.14,0,0,1,.2-1.31,2.65,2.65,0,0,1,.57-1,2.28,2.28,0,0,1,.85-.6,2.59,2.59,0,0,1,1.05-.21,2.65,2.65,0,0,1,1.2.26,3,3,0,0,1,.93.83v-.22a.94.94,0,0,1,.21-.65.71.71,0,0,1,.54-.23.63.63,0,0,1,.62.3A2.1,2.1,0,0,1,304.39,467.82Zm-4.69,2.05a2.23,2.23,0,0,0,.43,1.49,1.39,1.39,0,0,0,1.11.51,1.46,1.46,0,0,0,.76-.22,1.63,1.63,0,0,0,.59-.65,2.33,2.33,0,0,0,.23-1.06,2.46,2.46,0,0,0-.44-1.55,1.38,1.38,0,0,0-1.15-.55,1.36,1.36,0,0,0-1.11.53A2.35,2.35,0,0,0,299.7,469.87Z" transform="translate(1 11.83)"/><path class="cls-16" d="M307,467.53v.19a3,3,0,0,1,.93-.83,2.58,2.58,0,0,1,1.17-.26,2.3,2.3,0,0,1,1.15.28,1.74,1.74,0,0,1,.75.79,1.79,1.79,0,0,1,.21.64,6.86,6.86,0,0,1,.05.88v3a1.07,1.07,0,0,1-.23.74.72.72,0,0,1-.58.25.74.74,0,0,1-.58-.26,1.06,1.06,0,0,1-.23-.73v-2.7a2.66,2.66,0,0,0-.22-1.22.91.91,0,0,0-.89-.43,1.34,1.34,0,0,0-.79.26,1.45,1.45,0,0,0-.52.71,5,5,0,0,0-.12,1.35v2a1.06,1.06,0,0,1-.23.74.75.75,0,0,1-.59.25.73.73,0,0,1-.57-.26,1.06,1.06,0,0,1-.23-.73v-4.68a1,1,0,0,1,.2-.69.72.72,0,0,1,.55-.23.71.71,0,0,1,.39.1.81.81,0,0,1,.28.3A1.09,1.09,0,0,1,307,467.53Z" transform="translate(1 11.83)"/><path class="cls-16" d="M316.83,470.32h-3.17a2.21,2.21,0,0,0,.22,1,1.5,1.5,0,0,0,1.37.84,2.2,2.2,0,0,0,.53-.06,1.82,1.82,0,0,0,.47-.22,2.59,2.59,0,0,0,.41-.31l.5-.45a.52.52,0,0,1,.35-.11.62.62,0,0,1,.41.14.49.49,0,0,1,.15.38,1.12,1.12,0,0,1-.17.52,2.23,2.23,0,0,1-.52.56,3,3,0,0,1-.87.45,3.76,3.76,0,0,1-1.21.18,3.26,3.26,0,0,1-2.43-.89,3.32,3.32,0,0,1-.87-2.42,3.83,3.83,0,0,1,.22-1.33,2.9,2.9,0,0,1,.62-1.05,2.65,2.65,0,0,1,1-.68,3.75,3.75,0,0,1,1.33-.23,3.15,3.15,0,0,1,1.63.4,2.72,2.72,0,0,1,1,1,2.82,2.82,0,0,1,.33,1.3c0,.41-.11.67-.35.79A2.17,2.17,0,0,1,316.83,470.32Zm-3.17-.92h2.94a2,2,0,0,0-.45-1.24,1.32,1.32,0,0,0-1-.41,1.29,1.29,0,0,0-1,.41A2.13,2.13,0,0,0,313.66,469.4Z" transform="translate(1 11.83)"/><path class="cls-16" d="M323.44,472.29v-.16a4.5,4.5,0,0,1-.65.61,2.27,2.27,0,0,1-.69.36,2.55,2.55,0,0,1-.81.12,2.28,2.28,0,0,1-1.07-.25,2.42,2.42,0,0,1-.86-.7,3.15,3.15,0,0,1-.55-1.08,4.36,4.36,0,0,1-.19-1.33,3.52,3.52,0,0,1,.74-2.37,2.47,2.47,0,0,1,2-.85,2.64,2.64,0,0,1,1.18.24,3.43,3.43,0,0,1,.94.74v-2.39a1.25,1.25,0,0,1,.19-.76.7.7,0,0,1,.57-.25.72.72,0,0,1,.57.23,1.08,1.08,0,0,1,.2.7v7.14a1,1,0,0,1-.22.7.76.76,0,0,1-1.1,0A1,1,0,0,1,323.44,472.29Zm-3.19-2.38a2.84,2.84,0,0,0,.2,1.12,1.6,1.6,0,0,0,.56.7,1.38,1.38,0,0,0,.78.24,1.4,1.4,0,0,0,.78-.23,1.44,1.44,0,0,0,.57-.68,2.78,2.78,0,0,0,.21-1.15,2.68,2.68,0,0,0-.21-1.11,1.64,1.64,0,0,0-.57-.71,1.39,1.39,0,0,0-1.59,0,1.65,1.65,0,0,0-.54.73A2.83,2.83,0,0,0,320.25,469.91Z" transform="translate(1 11.83)"/><path class="cls-16" d="M330.06,465.15v2.47a3.59,3.59,0,0,1,.93-.73,2.58,2.58,0,0,1,3.54,1.24,4.17,4.17,0,0,1,.33,1.73,4.45,4.45,0,0,1-.19,1.35,3,3,0,0,1-.54,1.06,2.32,2.32,0,0,1-.86.7,2.46,2.46,0,0,1-1.12.25,2.58,2.58,0,0,1-.7-.09,2.13,2.13,0,0,1-.57-.24,2.47,2.47,0,0,1-.39-.29c-.11-.11-.25-.26-.43-.47v.16a.94.94,0,0,1-.22.69.73.73,0,0,1-.56.24.69.69,0,0,1-.55-.24,1,1,0,0,1-.2-.69v-7.07a1.16,1.16,0,0,1,.2-.75.64.64,0,0,1,.55-.25.73.73,0,0,1,.58.24A1.07,1.07,0,0,1,330.06,465.15Zm.08,4.81a2.23,2.23,0,0,0,.44,1.49,1.46,1.46,0,0,0,1.16.52,1.31,1.31,0,0,0,1.05-.54,2.28,2.28,0,0,0,.44-1.52,3,3,0,0,0-.18-1.1,1.64,1.64,0,0,0-.52-.72,1.28,1.28,0,0,0-.79-.25,1.4,1.4,0,0,0-.83.25,1.7,1.7,0,0,0-.57.73A3,3,0,0,0,330.14,470Z" transform="translate(1 11.83)"/><path class="cls-16" d="M337,473.42l.15-.36-2-5a1.77,1.77,0,0,1-.19-.63A.77.77,0,0,1,335,467a.78.78,0,0,1,.29-.28.72.72,0,0,1,.39-.11.64.64,0,0,1,.53.22,2,2,0,0,1,.31.64l1.38,4,1.3-3.71a5,5,0,0,1,.28-.71.81.81,0,0,1,.26-.34.7.7,0,0,1,.39-.09.68.68,0,0,1,.36.1.65.65,0,0,1,.26.26.73.73,0,0,1,.09.35c0,.08,0,.18-.08.32a3.38,3.38,0,0,1-.13.42l-2.11,5.54a6.14,6.14,0,0,1-.54,1.14,1.7,1.7,0,0,1-.69.64,2.5,2.5,0,0,1-1.16.22,2.93,2.93,0,0,1-1.07-.15.58.58,0,0,1-.35-.57.53.53,0,0,1,.17-.43.73.73,0,0,1,.5-.15.69.69,0,0,1,.25,0l.27,0a.91.91,0,0,0,.44-.08.73.73,0,0,0,.29-.29A4.26,4.26,0,0,0,337,473.42Z" transform="translate(1 11.83)"/><path class="cls-16" d="M360.44,466.77h.39v-.49a3.1,3.1,0,0,1,.19-1.21,1.22,1.22,0,0,1,.65-.65,3.13,3.13,0,0,1,1.26-.2c.95,0,1.42.22,1.42.69a.56.56,0,0,1-.15.39.46.46,0,0,1-.35.16l-.33,0a3,3,0,0,0-.39,0,.57.57,0,0,0-.56.26,1.84,1.84,0,0,0-.12.74v.39h.39c.62,0,.93.18.93.56s-.08.43-.25.5a1.75,1.75,0,0,1-.68.11h-.39v4.29a1,1,0,0,1-.23.73.76.76,0,0,1-.59.26.77.77,0,0,1-.58-.26,1,1,0,0,1-.22-.73v-4.29h-.45a.85.85,0,0,1-.56-.16.54.54,0,0,1-.2-.43c0-.39.28-.58.82-.58" transform="translate(1 11.83)"/><path class="cls-16" d="M365.75,470.88v1.35a1.06,1.06,0,0,1-.24.74.74.74,0,0,1-.58.25.73.73,0,0,1-.58-.25,1.07,1.07,0,0,1-.23-.74v-4.51c0-.73.26-1.09.79-1.09a.65.65,0,0,1,.58.25,1.38,1.38,0,0,1,.2.76,2.75,2.75,0,0,1,.59-.76,1.25,1.25,0,0,1,.82-.25,2.08,2.08,0,0,1,1,.25.77.77,0,0,1,.48.68.67.67,0,0,1-.64.68,2.14,2.14,0,0,1-.43-.11,2.13,2.13,0,0,0-.6-.11.93.93,0,0,0-.59.19,1.22,1.22,0,0,0-.35.55,4,4,0,0,0-.17.88c0,.34,0,.75,0,1.24" transform="translate(1 11.83)"/><path class="cls-16" d="M373.2,470.32H370a2.14,2.14,0,0,0,.23,1,1.49,1.49,0,0,0,.57.64,1.57,1.57,0,0,0,.8.21,1.79,1.79,0,0,0,.53-.07,1.46,1.46,0,0,0,.46-.21,4.56,4.56,0,0,0,.42-.31l.49-.45a.64.64,0,0,1,.76,0,.46.46,0,0,1,.16.38,1.12,1.12,0,0,1-.17.52,2.23,2.23,0,0,1-.52.56,3.16,3.16,0,0,1-.88.45,3.69,3.69,0,0,1-1.2.18,3.22,3.22,0,0,1-2.43-.89,3.32,3.32,0,0,1-.87-2.42,4.08,4.08,0,0,1,.21-1.33,2.9,2.9,0,0,1,.63-1.06,2.56,2.56,0,0,1,1-.67,3.5,3.5,0,0,1,1.33-.24,3.09,3.09,0,0,1,1.62.41,2.53,2.53,0,0,1,1,1,2.71,2.71,0,0,1,.34,1.3.82.82,0,0,1-.35.79,2.17,2.17,0,0,1-1,.18M370,469.4H373a2,2,0,0,0-.44-1.24,1.33,1.33,0,0,0-1-.42,1.29,1.29,0,0,0-1,.42,2.11,2.11,0,0,0-.48,1.24" transform="translate(1 11.83)"/><path class="cls-16" d="M379.94,470.32h-3.17a2,2,0,0,0,.22,1,1.46,1.46,0,0,0,1.37.85,1.79,1.79,0,0,0,.53-.07,1.62,1.62,0,0,0,.47-.21,4.4,4.4,0,0,0,.41-.31l.49-.45a.64.64,0,0,1,.76,0,.46.46,0,0,1,.15.38,1,1,0,0,1-.17.52,2,2,0,0,1-.51.56,3.16,3.16,0,0,1-.88.45,3.71,3.71,0,0,1-1.21.18,3.26,3.26,0,0,1-2.43-.89,3.36,3.36,0,0,1-.86-2.42,4.08,4.08,0,0,1,.21-1.33,3,3,0,0,1,.63-1.06,2.56,2.56,0,0,1,1-.67,3.5,3.5,0,0,1,1.33-.24,3.16,3.16,0,0,1,1.63.41,2.56,2.56,0,0,1,1,1,2.71,2.71,0,0,1,.34,1.3.82.82,0,0,1-.35.79,2.17,2.17,0,0,1-1,.18m-3.17-.92h2.94a2,2,0,0,0-.45-1.24,1.33,1.33,0,0,0-1-.42,1.29,1.29,0,0,0-1,.42,2,2,0,0,0-.47,1.24" transform="translate(1 11.83)"/><path class="cls-16" d="M383.49,467.54v.19a3.28,3.28,0,0,1,.95-.83,2.36,2.36,0,0,1,1.11-.26,2.65,2.65,0,0,1,1.38.38,2.76,2.76,0,0,1,1,1.13,4,4,0,0,1,.36,1.76,4.34,4.34,0,0,1-.21,1.38,3.13,3.13,0,0,1-.58,1,2.43,2.43,0,0,1-.87.65,2.58,2.58,0,0,1-1.08.23,2.29,2.29,0,0,1-1.16-.28,3.11,3.11,0,0,1-.9-.82v2.43c0,.71-.26,1.07-.78,1.07a.63.63,0,0,1-.61-.27,1.9,1.9,0,0,1-.14-.81v-7a1,1,0,0,1,.2-.7.69.69,0,0,1,.55-.22.7.7,0,0,1,.56.23.94.94,0,0,1,.22.68m3.18,2.35a2.81,2.81,0,0,0-.2-1.1,1.55,1.55,0,0,0-.54-.7,1.27,1.27,0,0,0-.77-.25,1.44,1.44,0,0,0-1.13.53,2.75,2.75,0,0,0,0,3.06,1.42,1.42,0,0,0,1.14.53,1.3,1.3,0,0,0,.75-.23,1.64,1.64,0,0,0,.55-.7,2.83,2.83,0,0,0,.21-1.14" transform="translate(1 11.83)"/><path class="cls-16" d="M389.92,465.87a.84.84,0,0,1-.57-.21.73.73,0,0,1-.24-.58.75.75,0,0,1,.24-.57.83.83,0,0,1,.57-.22.8.8,0,0,1,.56.2.7.7,0,0,1,.25.59.73.73,0,0,1-.24.58.84.84,0,0,1-.57.21m.81,1.68v4.68a1.07,1.07,0,0,1-.23.74.76.76,0,0,1-.59.25.74.74,0,0,1-.58-.26,1.06,1.06,0,0,1-.22-.73v-4.64a1,1,0,0,1,.22-.72.75.75,0,0,1,.58-.24.79.79,0,0,1,.59.24,1,1,0,0,1,.23.68" transform="translate(1 11.83)"/><path class="cls-16" d="M396,472.48l-1.43-2.36-.88.83v1.29a1,1,0,0,1-.24.72.78.78,0,0,1-.57.26.72.72,0,0,1-.59-.25,1.13,1.13,0,0,1-.21-.74v-6.91a1.44,1.44,0,0,1,.2-.82.71.71,0,0,1,.6-.28.72.72,0,0,1,.59.25,1.1,1.1,0,0,1,.22.75v3.94l1.83-1.92a3.88,3.88,0,0,1,.51-.48.71.71,0,0,1,.43-.13.69.69,0,0,1,.51.19.62.62,0,0,1,.2.48c0,.24-.22.56-.65.95l-.87.79,1.67,2.62c.12.19.21.34.26.44a.67.67,0,0,1,.08.29.87.87,0,0,1-.21.61.76.76,0,0,1-.55.22.6.6,0,0,1-.46-.16,3.64,3.64,0,0,1-.44-.58" transform="translate(1 11.83)"/><path class="cls-16" d="M399.47,473.22a.92.92,0,0,1-.63-.24.85.85,0,0,1-.27-.67.89.89,0,0,1,.89-.88.9.9,0,0,1,.64.26.85.85,0,0,1,.26.62.87.87,0,0,1-.26.67.92.92,0,0,1-.63.24" transform="translate(1 11.83)"/><path class="cls-16" d="M407.54,471.21a1.33,1.33,0,0,1-.19.65,2.05,2.05,0,0,1-.55.65,3,3,0,0,1-.93.51,4.18,4.18,0,0,1-1.27.19,3.11,3.11,0,0,1-2.35-.88,3.25,3.25,0,0,1-.84-2.35,3.8,3.8,0,0,1,.38-1.76,2.8,2.8,0,0,1,1.12-1.19,3.42,3.42,0,0,1,1.74-.42,3.53,3.53,0,0,1,1.16.19,3,3,0,0,1,.89.47,2.64,2.64,0,0,1,.56.62,1.23,1.23,0,0,1,.19.62.65.65,0,0,1-.21.49.75.75,0,0,1-.53.2.55.55,0,0,1-.34-.1,1.52,1.52,0,0,1-.3-.34,2.25,2.25,0,0,0-.62-.67,1.39,1.39,0,0,0-.82-.23,1.43,1.43,0,0,0-1.16.56A2.45,2.45,0,0,0,403,470a2.84,2.84,0,0,0,.12.84,1.88,1.88,0,0,0,.32.65,1.47,1.47,0,0,0,1.18.55,1.5,1.5,0,0,0,.84-.22,2.1,2.1,0,0,0,.62-.69,1.36,1.36,0,0,1,.31-.43.65.65,0,0,1,.43-.16.64.64,0,0,1,.49.23.73.73,0,0,1,.2.48" transform="translate(1 11.83)"/><path class="cls-16" d="M414.53,469.92a4.14,4.14,0,0,1-.22,1.34,3,3,0,0,1-.66,1.05,2.75,2.75,0,0,1-1,.67,3.54,3.54,0,0,1-1.33.24A3.47,3.47,0,0,1,410,473a2.89,2.89,0,0,1-1.67-1.73,3.75,3.75,0,0,1-.22-1.33,3.9,3.9,0,0,1,.22-1.35,3,3,0,0,1,.65-1,2.88,2.88,0,0,1,1-.67,4,4,0,0,1,2.66,0,3,3,0,0,1,1,.68,3,3,0,0,1,.65,1,4.09,4.09,0,0,1,.22,1.34m-1.63,0a2.43,2.43,0,0,0-.43-1.54,1.41,1.41,0,0,0-1.17-.55,1.48,1.48,0,0,0-.84.24,1.5,1.5,0,0,0-.56.73,3,3,0,0,0-.2,1.12,2.86,2.86,0,0,0,.2,1.11,1.59,1.59,0,0,0,.55.73,1.42,1.42,0,0,0,.85.25,1.41,1.41,0,0,0,1.17-.55,2.45,2.45,0,0,0,.43-1.54" transform="translate(1 11.83)"/><path class="cls-16" d="M420.71,470v2.16a1.06,1.06,0,0,1-.23.76.79.79,0,0,1-.61.26.74.74,0,0,1-.59-.26,1.07,1.07,0,0,1-.24-.76v-2.59a8,8,0,0,0,0-.95,1,1,0,0,0-.22-.55.72.72,0,0,0-.58-.22,1,1,0,0,0-1.05.55,3.78,3.78,0,0,0-.26,1.57v2.19a1.13,1.13,0,0,1-.22.76.83.83,0,0,1-1.21,0,1.08,1.08,0,0,1-.23-.76v-4.64a1,1,0,0,1,.21-.7.68.68,0,0,1,.55-.23.76.76,0,0,1,.56.22.82.82,0,0,1,.22.61v.16a2.65,2.65,0,0,1,.9-.74,2.4,2.4,0,0,1,1.07-.24,2.14,2.14,0,0,1,1.05.24,1.86,1.86,0,0,1,.73.74,2.85,2.85,0,0,1,.88-.74,2.24,2.24,0,0,1,1-.24,2.4,2.4,0,0,1,1.14.26,1.64,1.64,0,0,1,.72.75,3.37,3.37,0,0,1,.21,1.38v3.17a1.11,1.11,0,0,1-.23.76.85.85,0,0,1-1.22,0,1.13,1.13,0,0,1-.23-.76v-2.73a6.08,6.08,0,0,0-.05-.84,1,1,0,0,0-.24-.53.77.77,0,0,0-.59-.21,1.15,1.15,0,0,0-.61.19,1.39,1.39,0,0,0-.45.51,4,4,0,0,0-.18,1.45" transform="translate(1 11.83)"/><path class="cls-16" d="M345.27,469.53h0Z" transform="translate(1 11.83)"/><path class="cls-16" d="M345.35,470.05h0c0-.15-.05-.3-.07-.44C345.3,469.76,345.32,469.9,345.35,470.05Z" transform="translate(1 11.83)"/><path class="cls-16" d="M345.89,471.55v0Z" transform="translate(1 11.83)"/><path class="cls-16" d="M345.84,471.45a.2.2,0,0,1,0-.08A.2.2,0,0,0,345.84,471.45Z" transform="translate(1 11.83)"/><path class="cls-16" d="M345.5,470.63a5.7,5.7,0,0,0,.29.72,4.87,4.87,0,0,1-.28-.72Z" transform="translate(1 11.83)"/><path class="cls-16" d="M351.55,463.32a4.86,4.86,0,0,1,.8.07l.08-.48a5,5,0,0,0-1.69-.14l-.08-.26a.66.66,0,1,0-.8-.65.67.67,0,0,0,.53.65l.08.29a6.78,6.78,0,0,0-1.84.54l.15.44a8.16,8.16,0,0,1,1.64-.39A10.87,10.87,0,0,1,351.55,463.32Z" transform="translate(1 11.83)"/><path class="cls-16" d="M345.88,465.73h0l.07-.09-.19-.14-.31-.23a4.75,4.75,0,0,0-.87,1.28l-.06-.07a.58.58,0,0,0-.47-.18h0a.4.4,0,0,1-.27-.1.38.38,0,0,0,.09-.25.42.42,0,0,0-.84,0,.41.41,0,0,0,.42.41h.11a.65.65,0,0,0,.5.21.33.33,0,0,1,.27.1.39.39,0,0,1,.1.26h0a4.55,4.55,0,0,0-.19,1.67l.66,0a4.84,4.84,0,0,1,.23-1.39A6.48,6.48,0,0,1,345.88,465.73Z" transform="translate(1 11.83)"/><path class="cls-16" d="M357.29,463.87a.41.41,0,0,0-.41.42.31.31,0,0,0,0,.1.69.69,0,0,0-.21.51.33.33,0,0,1-.1.27.34.34,0,0,1-.18.09,5,5,0,0,0-1.1-1.11l-.47.51a7.62,7.62,0,0,1,1.08,1.24,9.92,9.92,0,0,1,.71,1.26l.64-.3a9.26,9.26,0,0,0-.71-1.37.56.56,0,0,0,.39-.59.42.42,0,0,1,.1-.28.45.45,0,0,0,.25.09.42.42,0,0,0,0-.84Z" transform="translate(1 11.83)"/><path class="cls-16" d="M355.63,469.62a14.28,14.28,0,0,1-4.23,1.27,16.36,16.36,0,0,1-2.15.14,18.71,18.71,0,0,1-2.22-.14c-.68-.09-1.2-.19-1.52-.26a4.87,4.87,0,0,0,.28.72v0a.2.2,0,0,0,0,.08l0,.08v0a4.55,4.55,0,0,0,.68,1,3.46,3.46,0,0,0,1.82,1.14h0a7.56,7.56,0,0,0,2.06.26,8.87,8.87,0,0,0,3.54-.73,5.9,5.9,0,0,0,2-1.66,4.89,4.89,0,0,0,.65-1.44,3.47,3.47,0,0,0,.09-1.14A8.06,8.06,0,0,1,355.63,469.62Z" transform="translate(1 11.83)"/><path class="cls-16" d="M346.16,465.94a6.69,6.69,0,0,0-.71,1.41,5.41,5.41,0,0,0-.21,1.54h0q0,.32,0,.63h0s0,.05,0,.08a3.73,3.73,0,0,0,.08.44,16.7,16.7,0,0,0,6,.31,13.67,13.67,0,0,0,4.07-1.2,8.17,8.17,0,0,0,1.32-.78,8.43,8.43,0,0,0-1.09-2.27,5.09,5.09,0,0,0-3.3-2.37,4.59,4.59,0,0,0-.77-.07,10.21,10.21,0,0,0-1.09.07,7.09,7.09,0,0,0-1.59.38,6,6,0,0,0-2.2,1.28l0,0A3.76,3.76,0,0,0,346.16,465.94Zm7.67-.42a1.09,1.09,0,1,1-1.09,1.09A1.09,1.09,0,0,1,353.83,465.52Zm-5.15,0a1.76,1.76,0,1,1-1.76,1.76A1.76,1.76,0,0,1,348.68,465.48Z" transform="translate(1 11.83)"/></g></g></svg>